<svg width="100" height="100" viewBox="0 0 100 100" fill="none" xmlns="http://www.w3.org/2000/svg">
<path fill-rule="evenodd" clip-rule="evenodd" d="M33.9555 33.728C34.5315 34.016 35.2088 34.16 35.9875 34.16C36.7768 34.16 37.4542 34.016 38.0195 33.728C38.5955 33.4293 39.0382 33.0186 39.3475 32.496C39.6675 31.9626 39.8275 31.344 39.8275 30.64V28.56C39.8275 27.856 39.6675 27.2426 39.3475 26.72C39.0382 26.1866 38.5955 25.776 38.0195 25.488C37.4542 25.1893 36.7768 25.04 35.9875 25.04C35.2088 25.04 34.5315 25.1893 33.9555 25.488C33.3795 25.776 32.9315 26.1866 32.6115 26.72C32.3022 27.2426 32.1475 27.856 32.1475 28.56V30.64C32.1475 31.344 32.3022 31.9626 32.6115 32.496C32.9315 33.0186 33.3795 33.4293 33.9555 33.728ZM37.0595 31.712C36.8142 31.9573 36.4568 32.08 35.9875 32.08C35.5288 32.08 35.1715 31.9573 34.9155 31.712C34.6702 31.456 34.5475 31.0986 34.5475 30.64V28.56C34.5475 28.0906 34.6702 27.7333 34.9155 27.488C35.1715 27.2426 35.5288 27.12 35.9875 27.12C36.4568 27.12 36.8142 27.2426 37.0595 27.488C37.3048 27.7333 37.4275 28.0906 37.4275 28.56V30.64C37.4275 31.0986 37.3048 31.456 37.0595 31.712ZM88.7562 29.84H79.1625H79.1562H69.5687H69.5625H59.975H59.9688H50.3812H50.375H40.7812V27.6H50.375H50.3812H59.9688H59.975H69.5625H69.5687H79.1562H79.1625H88.7562V29.84ZM51.495 52.824V55H59.335V52.824H56.775V46.2H51.895V48.36H54.535V52.824H51.495ZM54.439 44.472C54.7057 44.696 55.0577 44.808 55.495 44.808C55.9323 44.808 56.279 44.696 56.535 44.472C56.8017 44.248 56.935 43.944 56.935 43.56C56.935 43.176 56.8017 42.872 56.535 42.648C56.279 42.424 55.9323 42.312 55.495 42.312C55.0577 42.312 54.7057 42.424 54.439 42.648C54.183 42.872 54.055 43.176 54.055 43.56C54.055 43.944 54.183 44.248 54.439 44.472ZM65.7288 55C64.8328 55 64.1287 54.744 63.6167 54.232C63.1047 53.72 62.8488 53.016 62.8488 52.12V48.36H60.5288V46.2H62.8488V43.72H65.2487V46.2H68.5288V48.36H65.2487V52.12C65.2487 52.6 65.4888 52.84 65.9688 52.84H68.3688V55H65.7288ZM88.7562 50.84H79.1625H79.1562H69.5625V48.6H79.1562H79.1625H88.7562V50.84ZM72.3305 75.728C72.9172 76.016 73.5998 76.16 74.3785 76.16C75.3278 76.16 76.1385 75.9253 76.8105 75.456C77.4932 74.9866 77.9305 74.368 78.1225 73.6H75.7705C75.6958 73.824 75.5412 74 75.3065 74.128C75.0825 74.256 74.7838 74.32 74.4105 74.32C73.8772 74.32 73.4772 74.1813 73.2105 73.904C72.9438 73.616 72.8105 73.1946 72.8105 72.64V72.16H78.2025V70.56C78.2025 69.856 78.0425 69.2426 77.7225 68.72C77.4132 68.1866 76.9705 67.776 76.3945 67.488C75.8292 67.1893 75.1572 67.04 74.3785 67.04C73.5998 67.04 72.9172 67.1893 72.3305 67.488C71.7545 67.776 71.3065 68.1866 70.9865 68.72C70.6772 69.2426 70.5225 69.856 70.5225 70.56V72.64C70.5225 73.344 70.6772 73.9626 70.9865 74.496C71.3065 75.0186 71.7545 75.4293 72.3305 75.728ZM75.9145 70.7695V70.528C75.9145 69.984 75.7865 69.568 75.5305 69.28C75.2852 68.992 74.9012 68.848 74.3785 68.848C73.8558 68.848 73.4612 68.9973 73.1945 69.296C72.9385 69.5946 72.8105 70.016 72.8105 70.56V70.8L75.9145 70.7695ZM80.4682 67.2V76H82.8682V70.56C82.8682 70.08 82.9856 69.7066 83.2203 69.44C83.4656 69.1733 83.8176 69.04 84.2763 69.04C84.7136 69.04 85.0603 69.1733 85.3163 69.44C85.5829 69.7066 85.7162 70.08 85.7162 70.56V71.12H88.2763V70.4C88.2763 69.3333 88.0042 68.5066 87.4603 67.92C86.9269 67.3333 86.1749 67.04 85.2043 67.04C84.3616 67.04 83.7216 67.28 83.2842 67.76C83.0214 68.0485 82.8375 68.4218 82.7326 68.88H82.7083V67.2H80.4682ZM69.5687 71.84H59.975H59.9688H50.3812H50.375H40.7875H40.7812H31.1938H31.1875H21.6H21.5938H12V69.6H21.5938H21.6H31.1875H31.1938H40.7812H40.7875H50.375H50.3812H59.9688H59.975H69.5687V71.84ZM41.4533 55V46.2H43.3412V47.48H43.4315C43.4689 47.0821 43.6095 46.7567 43.8533 46.504C44.1413 46.1946 44.4986 46.04 44.9253 46.04C45.3839 46.04 45.7412 46.2373 45.9972 46.632C46.1507 46.8686 46.2582 47.1513 46.3197 47.48H46.4071C46.4432 47.0821 46.5785 46.7567 46.8133 46.504C47.0906 46.1946 47.4639 46.04 47.9333 46.04C48.4666 46.04 48.8986 46.2426 49.2292 46.648C49.5599 47.0426 49.7253 47.5866 49.7253 48.28V55H47.6613V48.44C47.6613 48.1946 47.6079 48.008 47.5013 47.88C47.3946 47.7413 47.2399 47.672 47.0373 47.672C46.8346 47.672 46.6799 47.7413 46.5732 47.88C46.4666 48.008 46.4132 48.1946 46.4132 48.44V55H44.7653V48.44C44.7653 48.1946 44.7119 48.008 44.6053 47.88C44.4986 47.7413 44.3439 47.672 44.1413 47.672C43.9386 47.672 43.7839 47.7413 43.6772 47.88C43.5706 48.008 43.5173 48.1946 43.5173 48.44V55H41.4533ZM31.8595 46.2V55H33.9235V48.44C33.9235 48.1946 33.9768 48.008 34.0835 47.88C34.1902 47.7413 34.3448 47.672 34.5475 47.672C34.7502 47.672 34.9048 47.7413 35.0115 47.88C35.1182 48.008 35.1715 48.1946 35.1715 48.44V55H36.8195V48.44C36.8195 48.1946 36.8728 48.008 36.9795 47.88C37.0862 47.7413 37.2408 47.672 37.4435 47.672C37.6462 47.672 37.8008 47.7413 37.9075 47.88C38.0142 48.008 38.0675 48.1946 38.0675 48.44V55H40.1315V48.28C40.1315 47.5866 39.9662 47.0426 39.6355 46.648C39.3048 46.2426 38.8728 46.04 38.3395 46.04C37.8702 46.04 37.4968 46.1946 37.2195 46.504C36.9848 46.7567 36.8494 47.0821 36.8133 47.48H36.7259C36.6645 47.1513 36.557 46.8686 36.4035 46.632C36.1475 46.2373 35.7902 46.04 35.3315 46.04C34.9048 46.04 34.5475 46.1946 34.2595 46.504C34.0158 46.7567 33.8752 47.0821 33.8377 47.48H33.7475V46.2H31.8595ZM26.3937 55.16C25.6151 55.16 24.9377 55.016 24.3617 54.728C23.7857 54.4293 23.3377 54.0186 23.0177 53.496C22.7084 52.9626 22.5537 52.344 22.5537 51.64V49.56C22.5537 48.856 22.7084 48.2426 23.0177 47.72C23.3377 47.1866 23.7857 46.776 24.3617 46.488C24.9377 46.1893 25.6151 46.04 26.3937 46.04C27.1831 46.04 27.8604 46.1893 28.4258 46.488C29.0018 46.776 29.4444 47.1866 29.7537 47.72C30.0737 48.2426 30.2337 48.856 30.2337 49.56V51.64C30.2337 52.344 30.0737 52.9626 29.7537 53.496C29.4444 54.0186 29.0018 54.4293 28.4258 54.728C27.8604 55.016 27.1831 55.16 26.3937 55.16ZM26.3937 53.08C26.8631 53.08 27.2204 52.9573 27.4657 52.712C27.7111 52.456 27.8337 52.0986 27.8337 51.64V49.56C27.8337 49.0906 27.7111 48.7333 27.4657 48.488C27.2204 48.2426 26.8631 48.12 26.3937 48.12C25.9351 48.12 25.5777 48.2426 25.3217 48.488C25.0764 48.7333 24.9537 49.0906 24.9537 49.56V51.64C24.9537 52.0986 25.0764 52.456 25.3217 52.712C25.5777 52.9573 25.9351 53.08 26.3937 53.08ZM14.8 54.728C15.3867 55.016 16.0693 55.16 16.848 55.16C18.0107 55.16 18.9387 54.8666 19.632 54.28C20.3253 53.6933 20.6933 52.8933 20.736 51.88H18.336C18.304 52.264 18.1547 52.5626 17.888 52.776C17.632 52.9786 17.2853 53.08 16.848 53.08C16.368 53.08 16 52.9573 15.744 52.712C15.488 52.456 15.36 52.0986 15.36 51.64V49.56C15.36 49.0906 15.488 48.7333 15.744 48.488C16 48.2426 16.368 48.12 16.848 48.12C17.2853 48.12 17.632 48.2266 17.888 48.44C18.1547 48.6533 18.304 48.9466 18.336 49.32H20.736C20.6933 48.3066 20.3253 47.5066 19.632 46.92C18.9387 46.3333 18.0107 46.04 16.848 46.04C16.0693 46.04 15.3867 46.1893 14.8 46.488C14.2133 46.776 13.76 47.1813 13.44 47.704C13.12 48.2266 12.96 48.8453 12.96 49.56V51.64C12.96 52.344 13.12 52.9626 13.44 53.496C13.76 54.0186 14.2133 54.4293 14.8 54.728ZM22.9058 34V25.2H25.1458V26.88H25.1701C25.275 26.4218 25.4589 26.0485 25.7218 25.76C26.1591 25.28 26.7991 25.04 27.6418 25.04C28.6124 25.04 29.3644 25.3333 29.8978 25.92C30.4418 26.5066 30.7138 27.3333 30.7138 28.4V29.12H28.1538V28.56C28.1538 28.08 28.0204 27.7066 27.7537 27.44C27.4978 27.1733 27.1511 27.04 26.7138 27.04C26.2551 27.04 25.9031 27.1733 25.6578 27.44C25.4231 27.7066 25.3057 28.08 25.3057 28.56V34H22.9058ZM13.056 25.2V36.88H15.456V34.48L15.376 32.32H15.4186C15.499 32.8155 15.6927 33.2208 16 33.536C16.416 33.952 16.9867 34.16 17.712 34.16C18.3093 34.16 18.8267 34.0213 19.264 33.744C19.7013 33.456 20.0373 33.056 20.272 32.544C20.5173 32.0213 20.64 31.4133 20.64 30.72V28.48C20.64 27.4346 20.3733 26.6026 19.84 25.984C19.3067 25.3546 18.5973 25.04 17.712 25.04C16.9867 25.04 16.416 25.2533 16 25.68C15.693 25.987 15.4992 26.387 15.4188 26.88H15.376V25.2H13.056ZM17.872 31.712C17.6373 31.9573 17.296 32.08 16.848 32.08C16.4107 32.08 16.0693 31.9573 15.824 31.712C15.5787 31.456 15.456 31.0986 15.456 30.64V28.56C15.456 28.1013 15.5787 27.7493 15.824 27.504C16.0693 27.248 16.4107 27.12 16.848 27.12C17.296 27.12 17.6373 27.2426 17.872 27.488C18.1173 27.7333 18.24 28.0906 18.24 28.56V30.64C18.24 31.0986 18.1173 31.456 17.872 31.712Z" fill="white"/>
</svg>
