<svg xmlns="http://www.w3.org/2000/svg" width="720" height="490" stroke="#00979c"><path fill="#00979c" d="M536.322-1.72c-32.544.235-65.05 9.206-93.42 28.417-36.113 22.916-61.647 53.509-83.1 84.89-32.914-47.284-76.608-92.086-140.265-106.554h-.002C204.393 1.593 189.305.337 174.754.36l-2.54.004-.241.043C54.789-5.533-37.024 125.57 10.857 233.516c47.08 115.83 213.601 145.695 297.596 53.109 19.533-19.309 35.25-40.553 49.39-61.99 32.155 51.838 79.858 97.281 144.573 111.916.031.007.06.018.092.025 115.247 33.058 234.892-75.528 215.61-193.504C703.88 54.686 619.996-2.326 536.321-1.72zM675.5 12.9v3.34h5.15v13.6h3.66v-13.6h5.2V12.9H675.5zm14.8 0v16.9h3.43V18.94l3.434 10.86h3.135l3.23-10.48V29.8h3.4V12.9h-4.67l-3.534 11.516-3.627-11.516H690.3zM529.149 58.998c57.767-2.262 121.557 36.461 130.725 93.484l.008.041.006.043c11.773 71.921-72.45 148.064-142.373 126.989l-1.002-.301-1.02-.23c-53.427-12.055-95.736-58.496-121.707-111.594 23.67-37.506 47.394-69.87 80.975-91.092l.443-.281.434-.295c15.67-10.702 34.256-16.01 53.511-16.764zm-364.101.162a78.79 78.79 0 0 1 6.613.246l3.735.3 1.443-.253c10.33.1 20.371 1.011 29.625 3.113 49.875 11.336 87.477 54.446 118.578 103.58-18.544 29.799-36.605 57.537-58.691 79.188l-.663.648-.62.69c-52.034 57.85-170.586 36.643-199.702-35.688l-.213-.529-.232-.521C36.862 147.344 96.953 59.472 165.047 59.16zM519 115v34h-33v32h33v34h32v-34h35v-32h-35v-34h-32zm-401 37.5v25h120v-25H118zm551.564 213.512c-12.97-.212-24.069 4.626-32.246 13.601-13.083 14.36-18.679 39.174-12.91 70.576v.006l.002.004c4.232 20.758 17.097 32.393 31.955 36.123 14.54 3.65 30.937-.257 43.135-10.314v.611l.834-.746c11.157-9.985 16.994-31.759 16.504-53.121-.49-21.362-7.335-42.392-22.094-50.688l-.02-.011-.02-.01c-8.902-3.96-17.358-5.904-25.14-6.031zM427.5 367.6v18.9h25.6v79.4h-25.6V485H502v-19.1h-25.6v-79.4H502v-18.9h-74.5zm-105.68.4v44.715c.41 13.96-.853 27.974.684 42.039.641 11.563 6.437 20.297 14.701 25.896 8.271 5.604 19.002 8.1 29.584 7.31 10.583-.788 21.03-4.867 28.705-12.472 7.583-7.513 12.414-18.484 12.002-32.988h.104V368h-22.9v59.4l.001-.023c-.483 10.882 1.64 22.197-2.935 32.113l-.008.02-.008.02c-1.091 3.012-3.74 5.438-7.191 7.013-3.452 1.575-7.689 2.288-11.854 1.908-4.165-.38-8.252-1.847-11.445-4.601-3.192-2.753-5.51-6.788-6.14-12.399L344.716 368H321.82zm-181.965.283a638.743 638.743 0 0 0-18.55.217l-.485.014V485.5h22.903l-.002-.502s-.113-31.806.47-47.611c6.333-.747 13.464 1.45 17.082 6.879 6.587 13.379 18.266 40.93 18.266 40.93l.129.3.326.004 21.31.28h.003c.93.004 1.663-.113 2.24-.372.577-.259.995-.687 1.19-1.205.388-1.034 0-2.235-.637-3.521l-.002-.004-17.493-36.186-.005-.01c-2.646-5.808-6.437-11.491-12.426-14.394 16.766-3.177 24.747-16.946 24.2-30.576-.563-13.98-10.009-27.816-27.589-29.807-8.253-1.092-20.623-1.394-30.93-1.422zm78.946.014V485.3h27.39c11.047.2 22.418-1.127 32.39-5.608 9.87-4.435 18.337-12.014 23.694-24.156l.096.03c.005-.014.007-.032.012-.046h.002l.015-.058c5.36-15.191 7.586-36.391 2.116-54.117-5.483-17.764-18.82-32.015-44.3-32.846h-.007l-41.408-.203zm-176.074.203-34.698 117h22.748l6.6-23h39.844l6.4 23h25.149l-34.696-117H42.727zm482.273 0v117h20.9v-82.549l36.776 82.549h27.564v-117h-20.9v.5s.05 71.732-.037 81.264L552.725 368.5H525zm145.717 18.299c6.875-.244 11.698 2.942 15.119 8.137 3.42 5.194 5.371 12.413 6.271 20.06.9 7.647.758 15.72.05 22.623-.71 6.904-2 12.662-3.313 15.576l-.008.02-.008.02c-2.635 7.494-9.67 13.365-17.728 13.365h-.012l-.014.002c-6.596.344-11.357-1.36-14.86-4.387-3.502-3.027-5.756-7.417-7.189-12.488-2.862-10.133-2.412-22.93-2.326-32.588.399-5.079 1.353-12.856 4.73-19.237 3.378-6.38 9.08-11.372 19.259-11.101h.015l.014-.002zm-421.024.289c8.288-.093 16.252.543 23.7 6.787l.2.205c6.038 6.159 9.768 20.063 9.637 33.783-.13 13.72-4.095 27.201-12.896 32.744l-.016.008-.013.012c-8.183 5.968-18.721 5.327-28.606 5.305v-78.71c2.692-.011 5.362-.105 7.994-.134zm-105.914.314c6.566.027 14.088-.369 19.963 1.303 3.01.857 5.57 2.241 7.389 4.473 1.818 2.23 2.923 5.33 2.95 9.718-.15 7.7-3.865 11.787-9.56 14.036-5.576 2.201-13.086 2.497-20.742 2.261v-31.79zm-86.181 4.448L72.04 443.6H42.96l14.637-51.75z"/></svg>