<svg xmlns="http://www.w3.org/2000/svg" width="164" height="217" viewBox="0 0 164 217"><path fill="#128DFF" d="M144.618 79.2c11.536 6.787 19.289 19.322 19.314 33.677.037 21.607-17.448 39.154-39.055 39.191-21.608.038-39.154-17.448-39.192-39.055-.025-14.354 7.683-26.917 19.196-33.744l11.242 18.998c.282.476.122 1.088-.336 1.4-4.251 2.894-7.039 7.776-7.029 13.306.015 8.864 7.214 16.038 16.078 16.022 8.865-.015 16.038-7.214 16.023-16.078-.01-5.53-2.815-10.402-7.076-13.282-.459-.31-.621-.921-.341-1.399L144.618 79.2z"/><path fill="#8BDA67" d="M58.267 78.971A38.946 38.946 0 0 0 39.167 74C17.558 74 .042 91.516.042 113.124c0 21.607 17.516 39.123 39.123 39.123 21.714 0 39.657-18.434 39.111-40.127H56.253c-.578 0-1.034.489-1.038 1.068-.055 8.645-7.269 15.986-16.049 15.986-8.864 0-16.05-7.186-16.05-16.05 0-8.865 7.186-16.051 16.05-16.051 2.322 0 4.528.493 6.52 1.38.487.216 1.068.052 1.339-.407L58.267 78.97z"/><path fill="#FF2A44" d="M61.431 72.834c-11.525-6.807-19.255-19.356-19.255-33.71C42.176 17.515 59.692 0 81.299 0c21.608 0 39.124 17.516 39.124 39.123 0 14.355-7.731 26.904-19.256 33.711L89.959 53.817c-.281-.477-.12-1.09.338-1.4 4.256-2.886 7.053-7.763 7.053-13.294 0-8.864-7.186-16.05-16.05-16.05-8.865 0-16.051 7.186-16.051 16.05 0 5.53 2.796 10.408 7.053 13.294.458.31.618.923.337 1.4L61.431 72.834z"/><path d="M15.7 173.626c5.044 0 8.543 1.213 10.497 3.641 1.986 2.427 2.979 6.856 2.979 13.286 0 6.431-.993 10.86-2.98 13.287-1.954 2.427-5.453 3.641-10.496 3.641-5.012 0-8.511-1.214-10.497-3.641-1.954-2.427-2.932-6.856-2.932-13.287 0-6.43.978-10.859 2.932-13.286 1.986-2.428 5.485-3.641 10.497-3.641zm0 5.059c-2.742 0-4.634.851-5.674 2.553-1.009 1.671-1.513 4.776-1.513 9.315s.504 7.66 1.513 9.362c1.04 1.671 2.931 2.506 5.674 2.506 2.774 0 4.665-.835 5.674-2.506 1.04-1.702 1.56-4.823 1.56-9.362s-.52-7.644-1.56-9.315c-1.009-1.702-2.9-2.553-5.674-2.553zm21.946 5.012.378 3.452c1.072-1.198 2.49-2.175 4.256-2.932 1.797-.756 3.546-1.135 5.248-1.135 5.265 0 7.897 4.13 7.897 12.389 0 4.381-.725 7.471-2.175 9.267-1.419 1.797-3.657 2.696-6.715 2.696-3.12 0-5.8-.757-8.038-2.27.126 1.608.174 3.215.142 4.823v6.099h-5.721v-32.389h4.728zm.993 6.998v11.064c2.963.662 5.028.993 6.194.993 1.766 0 2.98-.472 3.641-1.418.694-.977 1.04-2.947 1.04-5.911 0-2.9-.315-4.886-.945-5.957-.6-1.104-1.655-1.655-3.168-1.655-1.04 0-2.065.236-3.074.709-.977.441-2.206 1.166-3.688 2.175zm35.417 6.998H64.6c.22 2.018.788 3.373 1.702 4.066.914.662 2.411.993 4.492.993 2.364 0 5.138-.189 8.322-.567l.52 3.688c-2.175 1.04-5.359 1.561-9.551 1.561-4.193 0-7.172-.93-8.937-2.79-1.765-1.86-2.648-4.997-2.648-9.41 0-4.507.867-7.66 2.6-9.456 1.734-1.829 4.603-2.743 8.606-2.743 3.689 0 6.368.678 8.039 2.033 1.67 1.324 2.506 3.326 2.506 6.005 0 4.413-2.065 6.62-6.195 6.62zm-9.55-4.019h7.943c1.387 0 2.08-.898 2.08-2.695 0-1.261-.33-2.144-.993-2.648-.662-.504-1.86-.757-3.593-.757-2.018 0-3.42.426-4.208 1.277-.757.82-1.167 2.427-1.23 4.823zm23.792-9.977.378 3.405c3.593-2.711 6.935-4.067 10.024-4.067 2.049 0 3.625.552 4.728 1.655 1.104 1.103 1.655 2.695 1.655 4.776v17.4h-5.768v-15.651c0-1.292-.174-2.159-.52-2.6-.347-.473-.993-.71-1.939-.71-1.072 0-2.175.221-3.31.662-1.103.442-2.537 1.167-4.303 2.175v16.124h-5.768v-23.169h4.823zm43.178 18.062.52 4.445c-2.616.82-5.958 1.23-10.024 1.23-4.886 0-8.322-1.261-10.308-3.783-1.986-2.522-2.979-6.888-2.979-13.098 0-6.21.993-10.576 2.979-13.097 1.986-2.522 5.422-3.783 10.308-3.783 3.625 0 6.746.347 9.362 1.04l-.567 4.492a109.782 109.782 0 0 0-8.795-.331c-2.711 0-4.571.836-5.579 2.506-.978 1.639-1.466 4.697-1.466 9.173s.488 7.55 1.466 9.221c1.008 1.639 2.868 2.458 5.579 2.458 4.003 0 7.171-.157 9.504-.473zm30.273-27.519-9.221 30.971c-.315 1.103-1.04 1.655-2.175 1.655h-5.579c-.504 0-.962-.142-1.371-.425a2.27 2.27 0 0 1-.757-1.23l-9.267-30.971h6.099l6.667 24.493c.095.379.237.993.426 1.844.189.82.331 1.419.425 1.797h1.182c.189-1.009.489-2.222.899-3.641l6.572-24.493h6.1z"/></svg>